<svg xmlns="http://www.w3.org/2000/svg" viewBox="0 0 100 100" role="img" aria-label="Edoras"><path fill="currentColor" fill-rule="evenodd" d="M46.78 99.4C39.33 98.84 33.42 97.28 27.64 94.34C22.97 91.96 19.57 89.53 15.8 85.86C7.77 78.02 2.89 68.14 1.29 56.41C0.91 53.59 0.87 47.71 1.23 45.13C2.14 38.49 3.66 33.44 6.32 28.22C8.22 24.49 9.97 21.82 12.65 18.59C14.9 15.89 18.42 12.56 21.21 10.5C28.51 5.11 36.47 1.94 45.53 0.84C48.12 0.52 53.51 0.52 56.22 0.84C66.56 2.04 75.5 6.18 82.25 12.89C90.08 20.69 94.18 30.66 93.91 41.22C93.86 43.37 93.8 43.94 93.52 45.01C92.34 49.48 89.35 52.14 84.97 52.62C83.37 52.8 78.54 52.8 76.13 52.63C71.34 52.28 67.91 50.87 64.92 48C63.37 46.51 62.49 45.39 60.45 42.3C58.54 39.41 57.77 38.46 56.89 37.94C55.73 37.26 54.8 37.29 54.14 38.02C53.89 38.31 53.88 38.55 53.81 47.55C53.74 57.76 53.78 57.25 52.85 58.78C51.51 60.98 49.26 62.21 46.83 62.07C44.16 61.92 42.13 60.13 41.69 57.52C41.16 54.47 43.55 51.2 46.81 50.52C47.78 50.32 49.35 50.43 50.22 50.76C50.6 50.9 50.94 50.99 50.98 50.95C51.02 50.91 51.05 45.68 51.05 39.34C51.05 27.84 51.05 27.8 51.33 27.45C52.13 26.42 53.51 26.5 56.01 27.7C59.16 29.22 61.42 31.66 64.45 36.79C65.91 39.27 66.51 40.09 67.69 41.23C68.63 42.13 70.18 42.94 71.41 43.15C73.26 43.48 75.13 42.75 76.03 41.35C76.94 39.93 77.06 37.84 76.39 35.2C74.26 26.87 67.3 20.3 58.19 18.03C55.35 17.32 53.94 17.17 50.46 17.19C47.69 17.2 47.07 17.24 45.39 17.54C39.56 18.58 34.44 20.97 29.74 24.85C21.02 32.07 16.34 43.95 17.96 54.74C18.86 60.75 21.73 66.35 26.17 70.8C30.81 75.44 36.63 78.33 43.49 79.41C45.35 79.7 49.58 79.81 51.66 79.61C56.97 79.12 62.27 77.59 67.42 75.07C71.91 72.87 76.09 70.01 81.05 65.72C83.75 63.39 84.72 62.67 85.94 62.07C87.58 61.26 88.73 61.01 90.86 61C92.51 61 92.81 61.04 93.75 61.35C96.35 62.22 98.21 64.26 98.9 66.97C99.23 68.28 99.1 70.25 98.57 71.8C96.63 77.6 90.6 84.16 82.26 89.57C79.64 91.26 78.66 91.82 76.04 93.12C69.49 96.37 62.7 98.37 55.58 99.15C53.83 99.34 48.16 99.5 46.78 99.4ZM41.38 71.91C33.84 70.69 27.98 64.58 26.83 56.72C26.63 55.34 26.75 51.72 27.03 50.46C28.8 42.53 35.43 36.67 43.65 35.78C45.11 35.62 47.98 35.69 48.18 35.89C48.24 35.95 48.28 38.06 48.26 40.58L48.22 45.15L46.51 45.19C44.03 45.25 42.39 45.76 40.58 47.05C38.91 48.23 37.68 49.92 37 51.95C36.7 52.85 36.66 53.18 36.65 54.87C36.65 57.14 36.88 58.13 37.89 60.2C40.4 65.32 45.96 68.83 52.47 69.41C53.06 69.46 53.52 69.55 53.49 69.6C53.36 69.8 51.21 70.77 50 71.17C49.31 71.4 48.31 71.67 47.76 71.78C46.32 72.07 42.84 72.14 41.38 71.91Z"/></svg>
